<svg width="76" height="78" viewBox="0 0 76 78" fill="none" xmlns="http://www.w3.org/2000/svg">
  <path d="M26.6714 0.0820053C30.1876 -0.438838 33.6609 1.60166 36.0874 3.9273C38.1966 1.33785 42.1314 -0.047605 45.4068 0.243114C49.9685 0.647801 54.4704 3.8958 55.4836 8.4901L55.6347 8.44405C58.4141 7.61477 61.8368 8.01191 64.38 9.40568C67.1018 10.8657 69.1108 13.3725 69.9429 16.3469C70.5427 18.4309 70.5317 21.7809 69.4702 23.6967C69.8726 23.92 70.2632 24.1414 70.6601 24.3831C76.9837 28.2317 77.6055 37.4233 72.2167 42.3466C71.4486 43.0484 70.54 43.5818 69.7257 44.2344C70.4393 46.3999 70.3835 48.3063 69.683 50.4823C68.8038 53.2672 66.837 55.5789 64.2288 56.8927C61.2171 58.426 57.7187 58.3519 54.565 57.3331C53.8487 57.8539 54.9465 73.9273 54.1622 75.8105C53.6863 76.9533 52.8608 77.3427 51.7851 77.7919C48.9677 76.7572 49.3953 75.2685 49.3842 72.6726L49.3782 67.2897C49.3758 62.5182 49.2228 56.8039 49.4327 52.0971C50.2534 50.8507 50.4217 50.6933 51.8461 50.3473C53.5751 50.873 54.3774 52.0864 55.8873 52.678C57.3998 53.2707 59.9018 53.4165 61.4358 52.7469C64.2479 51.5195 65.702 48.8269 65.0684 45.798C64.8818 44.9061 64.2156 43.823 64.0524 42.9385C63.972 42.4788 64.0548 42.0053 64.2866 41.6002C64.6883 40.8933 65.7948 40.3527 66.5312 40.0727C72.828 37.6789 72.1091 29.1421 65.6963 27.4652C64.4895 27.1498 63.0781 26.0806 63.5287 24.678C63.833 23.6131 64.5387 22.6498 64.9565 21.6012C66.2916 18.2506 64.3841 14.5551 61.1347 13.2769C58.792 12.3544 56.9462 13.2172 54.8927 14.1582C50.4796 16.1805 51.3561 10.8722 50.445 8.923C49.7066 7.32996 48.3667 6.09468 46.719 5.48797C44.9016 4.82702 43.1883 5.05791 41.4782 5.86379C38.5428 7.35916 38.8952 10.2263 36.4327 11.0338C34.5812 11.6411 33.4935 8.77524 32.6463 7.61455C32.1128 6.87069 31.4296 6.24671 30.6404 5.78296C29.0923 4.88871 27.5045 4.74127 25.7798 5.2083C23.3305 5.87155 21.776 7.49041 21.2183 9.96633C21.0293 10.8053 20.9879 11.7335 20.5523 12.4822C20.1248 13.2171 19.5894 13.3089 18.8254 13.509C16.9112 12.7325 15.8051 12.1745 13.6434 12.6073C11.9302 12.94 10.4232 13.9488 9.46247 15.4058C8.28975 17.1776 8.01938 19.7443 8.96657 21.6499C9.69938 23.1243 10.2224 23.3952 10.5681 25.0965C9.74794 27.3945 8.14822 27.1074 6.65186 28.7657C2.14288 33.7868 7.13453 41.4066 13.4582 39.4513C15.1739 38.9207 15.4365 38.0904 17.4832 38.05C18.1338 38.4398 18.3727 38.6006 18.9454 39.0962C19.9908 41.6267 18.6255 43.8087 21.7084 46.5715C23.9098 48.6702 26.983 48.9882 29.8063 48.1508C31.9997 47.5002 32.9236 46.3956 34.7513 48.161C34.7613 48.2164 34.7705 48.2721 34.779 48.3279C34.9496 49.4655 34.8895 51.7515 34.8871 52.9786L34.8836 60.471L34.8813 69.92C34.8828 71.6748 34.9196 73.4359 34.83 75.1906C34.7716 76.335 33.6956 77.3628 32.5768 77.4947C31.5944 77.6104 30.3049 76.9149 30.0796 75.8879C29.6787 74.0601 29.8962 72.1448 29.8574 70.2852C29.8496 65.6904 29.9311 61.0976 29.8679 56.504C29.8553 55.6325 29.9715 54.1031 29.8736 53.3687C29.3802 53.2512 28.0825 53.5574 27.4843 53.5691C21.54 53.6857 16.2583 49.9973 14.7616 44.2835C7.08827 46.4508 -0.715419 40.1732 0.0523937 32.184C0.394847 28.6213 1.974 26.2846 4.61749 23.9962C3.74861 22.2608 3.38866 20.3047 3.49486 18.3744C3.87844 11.4043 9.8186 6.78997 16.6168 7.71594C18.6433 3.04804 21.5724 0.709927 26.6714 0.0820053Z" fill="#ECEAEA"/>
  <path d="M32.0303 16.4814C34.7343 16.1697 37.4258 17.4648 38.848 19.7898C39.8372 21.4134 40.1388 23.3642 39.6857 25.2107C39.0829 27.6436 37.6195 28.8213 35.5961 30.0353C35.741 31.1565 35.8329 32.8797 35.6567 33.9796C37.9006 35.8 41.8395 37.8068 43.9425 39.8829C44.8066 40.7359 44.4742 43.9382 44.3488 45.1751C45.4327 44.3945 48.3928 41.5489 49.5215 40.5059C49.505 39.3956 49.4762 38.2855 49.4351 37.1758C47.8052 36.2934 46.7258 35.5277 45.7733 33.8525C42.7326 28.5039 47.9649 21.9911 53.8838 23.7224C58.9435 25.2025 60.7749 31.4483 57.0981 35.3475C56.274 36.2216 55.531 36.6207 54.4736 37.1675C54.6173 38.4308 54.6117 39.8788 54.5746 41.156C54.5195 43.0546 52.8231 44.2396 51.4506 45.4157C49.2071 47.5836 46.6045 49.6035 44.4328 51.7427C44.4562 51.953 44.4758 52.1636 44.4917 52.3746C44.5778 53.5782 44.5055 55.6234 44.5025 56.8868L44.4984 65.232L44.4996 71.4984C44.504 72.6933 44.5394 73.798 44.4779 75.0429C44.442 77.1402 42.0071 78.7352 40.325 77.1478C39.0961 75.988 39.391 72.9327 39.3906 71.3241V65.04C39.3918 57.5971 39.4635 50.0626 39.378 42.6304C37.1209 40.59 34.0125 39.1878 31.723 37.1563C30.6141 36.1722 30.778 34.7211 30.752 33.3782C30.7321 32.3569 30.7288 31.3401 30.7136 30.3231C23.9495 27.9731 23.9451 18.0139 32.0303 16.4814ZM33.2514 25.6472C33.6306 25.4836 33.985 25.3461 34.3304 25.1182C34.5679 24.6767 34.8445 24.1955 35.0252 23.7326C34.7704 22.6095 34.139 21.0379 32.6653 21.2717C31.3272 21.7844 30.2896 22.7995 30.865 24.355C31.047 24.8476 31.4254 25.2425 31.9099 25.4452C32.3474 25.6307 32.7811 25.6709 33.2514 25.6472ZM49.912 30.0141C49.7453 30.6947 49.9232 31.4139 50.3883 31.9381C50.8533 32.4624 51.546 32.7251 52.2418 32.6408C53.1762 32.5277 53.9261 31.8159 54.088 30.8888C54.2044 30.222 53.9976 29.5396 53.5309 29.0495C53.0641 28.5595 52.3925 28.3199 51.7209 28.4036C50.8422 28.5133 50.1225 29.154 49.912 30.0141Z" fill="#ECEAEA"/>
  <path d="M11.6444 53.3445C12.3407 53.2436 13.3746 53.3728 14.0556 53.5653C18.0048 54.6818 20.065 58.5338 18.9736 62.467C20.0626 63.126 24.7185 65.821 25.1056 66.8759C25.6118 68.2554 25.5591 74.2632 25.2346 75.9261C25.059 76.8258 23.7191 77.4261 22.8665 77.7631C21.5307 77.2761 20.9358 76.9499 20.4732 75.5806C20.2591 74.3608 20.3601 70.4632 20.394 69.1061C19.2735 68.5219 17.0577 67.1082 16.0539 66.3584C15.057 66.8144 14.3336 67.1043 13.2353 67.2765C11.3764 67.5696 9.47779 67.1027 7.96699 65.9808C6.4656 64.8495 5.47543 63.168 5.21457 61.3063C4.94507 59.468 5.42424 57.5983 6.54457 56.1161C7.88365 54.3544 9.51137 53.6426 11.6444 53.3445ZM10.2584 61.227C10.7239 62.2633 11.916 62.7576 12.9781 62.3549C14.0678 61.9418 14.629 60.7349 14.2427 59.6354C13.8564 58.5359 12.6636 57.9453 11.5549 58.3046C10.9747 58.4928 10.5018 58.9188 10.2544 59.4764C10.0069 60.034 10.0085 60.6705 10.2584 61.227Z" fill="#ECEAEA"/>
  <path d="M10.631 30.8024C11.9207 30.4598 13.2443 31.2257 13.59 32.5145C13.9356 33.8034 13.1729 35.1288 11.8849 35.4776C10.5925 35.8275 9.26167 35.0616 8.91484 33.7685C8.56801 32.4752 9.33703 31.1462 10.631 30.8024Z" fill="#ECEAEA"/>
</svg>
