<svg width="38" height="38" viewBox="0 0 38 38" fill="none" xmlns="http://www.w3.org/2000/svg">
<path d="M37.8878 18.9414C37.8865 8.48029 29.4062 0 18.9439 0C8.48155 0 0 8.48155 0 18.9439C0 28.3615 6.87215 36.1735 15.8742 37.6402L15.9828 37.6554V24.4189H11.1723V18.9414H15.9828V14.7701C15.9588 14.5591 15.9462 14.314 15.9462 14.0664C15.9462 10.3739 18.9401 7.37999 22.6326 7.37999C22.8107 7.37999 22.9876 7.38756 23.1632 7.4002L23.1405 7.39893C24.6551 7.42041 26.1205 7.55432 27.5505 7.79307L27.3812 7.76907V12.4305H24.9911C24.8825 12.4154 24.7574 12.4065 24.6311 12.4065C23.119 12.4065 21.8924 13.6319 21.8924 15.1453C21.8924 15.2312 21.8961 15.3158 21.9037 15.4004L21.9025 15.3891V18.9414H27.1564L26.3163 24.4189H21.9025V37.6554C31.0144 36.1723 37.8865 28.359 37.8878 18.9414Z" fill="#EFECEB"/>
</svg>
