<svg width="40" height="39" viewBox="0 0 40 39" fill="none" xmlns="http://www.w3.org/2000/svg">
<path d="M19.8139 0.00132134C8.87105 0.00132134 0 8.87238 0 19.8152C0 28.5158 5.60882 35.9083 13.4083 38.5707L13.5484 38.6117C14.5393 38.798 14.9027 38.1862 14.9027 37.659C14.9027 37.1887 14.8868 35.9414 14.8776 34.2911C9.36653 35.4869 8.20381 31.6327 8.20381 31.6327C7.82328 30.4105 7.04373 29.4063 6.01974 28.747L5.9986 28.7351C4.2043 27.5063 6.13733 27.5314 6.13733 27.5314C7.44143 27.7151 8.53413 28.4801 9.16173 29.553L9.1723 29.5728C9.90429 30.8875 11.2863 31.7622 12.8732 31.7622C13.6343 31.7622 14.3477 31.5613 14.9635 31.2086L14.9423 31.2191C15.0374 30.174 15.4986 29.2517 16.1962 28.57L16.1975 28.5686C11.7977 28.0732 7.17189 26.3687 7.17189 18.778C7.17189 18.7423 7.17057 18.7014 7.17057 18.6604C7.17057 16.6507 7.94616 14.8221 9.21458 13.4572L9.21062 13.4625C8.9424 12.7464 8.78649 11.9192 8.78649 11.0564C8.78649 10.0298 9.00582 9.05339 9.40088 8.17342L9.38239 8.21834C9.38239 8.21834 11.0419 7.68719 14.8313 10.2491C16.3164 9.82501 18.0222 9.58058 19.7848 9.58058C21.5474 9.58058 23.2531 9.82501 24.8704 10.2809L24.7383 10.2491C28.5026 7.68719 30.1621 8.21834 30.1621 8.21834C30.5387 9.0666 30.758 10.0549 30.758 11.0948C30.758 11.943 30.6127 12.7569 30.3444 13.5127L30.3603 13.4625C31.6195 14.826 32.3924 16.6547 32.3924 18.6644C32.3924 18.7053 32.3924 18.745 32.3911 18.7846V18.778C32.3911 26.3899 27.76 28.0652 23.3509 28.5528C24.186 29.4077 24.7013 30.577 24.7013 31.8679C24.7013 31.9908 24.696 32.1136 24.6867 32.2352L24.6881 32.2193C24.6881 34.8711 24.663 37.001 24.663 37.6445C24.663 38.1651 25.0091 38.7834 26.0252 38.5852C33.9898 35.9044 39.6238 28.5052 39.6238 19.7888C39.6238 8.85916 30.7633 0 19.835 0C19.8271 0 19.8178 0 19.8099 0H19.8112L19.8139 0.00132134Z" fill="#EFECEB"/>
</svg>
