<svg width="37" height="37" viewBox="0 0 37 37" fill="none" xmlns="http://www.w3.org/2000/svg">
<path d="M30.3416 8.55404V8.55527C30.3416 9.77133 29.3556 10.7562 28.1407 10.7562C26.9259 10.7562 25.9398 9.77011 25.9398 8.55527C25.9398 7.3392 26.9259 6.35436 28.1407 6.35436C29.3556 6.35559 30.3404 7.3392 30.3416 8.55404ZM18.3462 24.462C14.9684 24.462 12.2304 21.724 12.2304 18.3462C12.2304 14.9684 14.9684 12.2304 18.3462 12.2304C21.724 12.2304 24.462 14.9684 24.462 18.3462C24.462 21.7228 21.7252 24.4607 18.3486 24.4607H18.3474L18.3462 24.462ZM18.3462 8.92596C13.143 8.92596 8.92596 13.1443 8.92596 18.3462C8.92596 23.5481 13.1443 27.7664 18.3462 27.7664C23.5493 27.7664 27.7664 23.5481 27.7664 18.3462C27.7664 18.3462 27.7664 18.3462 27.7664 18.3449C27.7664 13.143 23.5493 8.92473 18.3462 8.92473C18.3462 8.92473 18.3462 8.92473 18.3449 8.92473L18.3462 8.92596ZM18.3462 3.30319C23.2435 3.30319 23.827 3.32766 25.7612 3.41207C26.9883 3.42676 28.1554 3.6592 29.2357 4.07027L29.166 4.04702C30.7735 4.6734 32.0214 5.92128 32.6343 7.48723L32.649 7.52883C33.0356 8.53936 33.2656 9.70771 33.2803 10.9274V10.9336C33.3671 12.869 33.3867 13.4501 33.3867 18.3486C33.3867 23.2471 33.3635 23.8295 33.2741 25.7637C33.2509 26.992 33.0172 28.1591 32.6074 29.2394L32.6306 29.1684C32.315 29.9954 31.8477 30.7001 31.2568 31.28L31.2555 31.2812C30.6769 31.8733 29.9722 32.3407 29.1855 32.638L29.1464 32.6514C28.1322 33.038 26.9602 33.268 25.7355 33.2827H25.7294C23.7818 33.3696 23.208 33.3891 18.3009 33.3891C13.3914 33.3891 12.8188 33.3659 10.8724 33.2766C9.6392 33.2533 8.46718 33.0197 7.38202 32.6098L7.4542 32.6331C6.62718 32.3223 5.9225 31.8538 5.3475 31.2604L5.34628 31.2592C4.74803 30.6842 4.27824 29.9783 3.9834 29.188L3.97117 29.1501C3.5858 28.1371 3.35213 26.9663 3.32888 25.7429V25.7331C3.26037 23.8062 3.2359 23.2116 3.2359 18.3278C3.2359 13.4415 3.26037 12.8457 3.32888 10.8956C3.35213 9.66367 3.58457 8.49287 3.99441 7.40894L3.97117 7.48112C4.27335 6.65042 4.74436 5.9433 5.34505 5.37197L5.3475 5.36952C5.92005 4.76761 6.62596 4.29904 7.4175 4.0091L7.45542 3.99686C8.46229 3.60782 9.62574 3.37415 10.8418 3.35335H10.8504C12.7993 3.28484 13.373 3.2616 18.2789 3.2616L18.3462 3.30319ZM18.3462 0C13.362 0 12.7405 0.0232447 10.7831 0.110106C9.17431 0.144362 7.64872 0.455106 6.23692 0.994628L6.32989 0.964043C5.05755 1.44973 3.97362 2.17032 3.08053 3.07808L3.07931 3.07931C2.16787 3.97239 1.44851 5.05755 0.983617 6.26872L0.962819 6.32989C0.453883 7.64872 0.143138 9.17553 0.110106 10.7684V10.7831C0.0183511 12.7405 0 13.362 0 18.3462C0 23.3303 0.0232447 23.9518 0.110106 25.9093C0.144362 27.518 0.455106 29.0436 0.994628 30.4554L0.964043 30.3624C1.93787 32.8349 3.85739 34.7545 6.26628 35.7063L6.32989 35.7283C7.64872 36.236 9.17553 36.5468 10.7684 36.581H10.7831C12.7405 36.6728 13.362 36.6911 18.3462 36.6911C23.3303 36.6911 23.9518 36.6679 25.9093 36.581C27.518 36.5455 29.0436 36.236 30.4554 35.6965L30.3624 35.7283C32.8349 34.7545 34.7545 32.8349 35.7063 30.4261L35.7283 30.3624C36.2372 29.0436 36.5468 27.5168 36.581 25.9239V25.9093C36.6728 23.9518 36.6911 23.3303 36.6911 18.3462C36.6911 13.362 36.6679 12.7405 36.581 10.7831C36.5455 9.17431 36.236 7.64872 35.6965 6.23692L35.7283 6.32989C35.2414 5.05755 34.522 3.97362 33.613 3.08053L33.6118 3.07931C32.7187 2.16787 31.6336 1.44851 30.4224 0.983617L30.3612 0.962819C29.0424 0.453883 27.5156 0.143138 25.9227 0.110106H25.908C23.9506 0.0183511 23.3291 0 18.3449 0H18.3462Z" fill="#EFECEB"/>
</svg>
