<svg width="268" height="63" viewBox="0 0 268 63" fill="none" xmlns="http://www.w3.org/2000/svg">
<g clip-path="url(#clip0_174_57)">
<path d="M88 7.3C89.6 6.3 91.3 5.8 93.3 5.8C95.3 5.8 96.2 6 97.1 6.4C98 6.9 99 7.4 100.1 8.3C101.4 9.3 103.1 9.3 104.2 8.3C104.8 7.7 105.1 6.9 105.1 6.1C105.1 5.3 105 5.2 104.9 4.8C104.8 4.3 104.4 4 104 3.7C102.4 2.4 100.7 1.4 99.1 0.8C97.4 0.3 95.4 0 93.2 0C90.2 0 87.2 0.7 84.7 2.3C82.2 3.9 80.1 6.1 78.7 8.7C77.3 11.3 76.5 14.2 76.5 17.4C76.5 20.6 77.2 23.6 78.7 26.3C80.2 28.9 82.2 31.1 84.7 32.6C87.3 34.1 90.2 34.9 93.3 34.9C96.4 34.9 100.8 33.5 104 31C104.6 30.3 104.9 29.5 104.9 28.7C104.9 27.9 104.7 27.1 104.1 26.5C103.2 25.4 101.6 25.2 100.1 26.3C97.9 28 95.6 28.8 93.3 28.8C91 28.8 89.6 28.3 88 27.3C86.4 26.3 85 24.9 84.1 23.2C83.1 21.4 82.6 19.4 82.6 17.4C82.6 15.4 83.2 13.3 84.1 11.6C85 9.8 86.4 8.4 88 7.4V7.3Z" fill="white"/>
<path d="M127 11.2C125.3 10.3 123.5 9.8 121.4 9.8C119.3 9.8 118.5 10 117.2 10.6C116.6 10.8 116.1 11.1 115.5 11.4V3.5C115.5 2.6 115.2 1.8 114.6 1.2C113.5 0.1 111.3 0.1 110.1 1.2C108.9 2.3 109.2 2.6 109.2 3.5V31.2C109.2 32 109.5 32.8 110.1 33.4C111.2 34.7 113.4 34.5 114.6 33.4C115.2 32.8 115.5 32.1 115.5 31.2V19.7C115.5 18.9 115.6 18.2 116.1 17.6C116.6 17 117.1 16.5 117.9 16.1C118.7 15.8 119.5 15.5 120.5 15.5C122.2 15.5 123.5 16 124.5 16.9C125.5 17.8 126 19.2 126 21.1V31.1C126 31.9 126.3 32.7 126.9 33.3C127.5 33.9 128.2 34.2 129.1 34.2C130 34.2 130.7 34 131.4 33.4C132 32.8 132.3 32.1 132.3 31.2V21.2C132.3 18.8 131.8 16.7 130.9 15C130 13.3 128.7 11.9 127 11V11.2Z" fill="white"/>
<path d="M138 2.1001C137.2 2.8001 136.9 3.7001 136.9 4.7001C136.9 5.7001 137.4 6.6001 138 7.3001C138.7 8.1001 139.6 8.4001 140.6 8.4001C141.6 8.4001 142.4 7.9001 143.2 7.3001C144 6.6001 144.3 5.7001 144.3 4.7001C144.3 3.7001 143.8 2.8001 143.2 2.1001C141.7 0.600098 139.4 0.600098 137.9 2.1001H138Z" fill="white"/>
<path d="M140.6 9.8999C139.8 9.8999 139 10.1999 138.4 10.7999C137.8 11.3999 137.5 12.1999 137.5 13.0999V31.0999C137.5 31.9999 137.8 32.7999 138.4 33.3999C139 33.9999 139.7 34.2999 140.6 34.2999C141.5 34.2999 142.2 33.9999 142.9 33.3999C143.5 32.7999 143.8 32.0999 143.8 31.1999V13.0999C143.8 12.1999 143.5 11.3999 142.9 10.7999C142.3 10.1999 141.5 9.8999 140.6 9.8999Z" fill="white"/>
<path d="M167.2 11.1998C165.5 10.2998 163.7 9.7998 161.6 9.7998C159.5 9.7998 158.6 9.9998 157.4 10.5998C156.6 10.7998 155.9 11.1998 155.3 11.5998C155.2 11.2998 155 10.9998 154.7 10.7998C153.6 9.6998 151.4 9.6998 150.2 10.7998C149.6 11.3998 149.3 12.1998 149.3 13.0998V31.1998C149.3 31.9998 149.6 32.7998 150.2 33.3998C151.3 34.6998 153.5 34.4998 154.7 33.3998C155.9 32.2998 155.6 32.0998 155.6 31.1998V19.6998C155.6 18.8998 155.7 18.1998 156.2 17.5998C156.7 16.9998 157.2 16.4998 158 16.0998C158.8 15.6998 159.6 15.4998 160.6 15.4998C162.3 15.4998 163.6 15.9998 164.6 16.8998C165.6 17.7998 166.1 19.1998 166.1 21.0998V31.0998C166.1 31.8998 166.4 32.6998 167 33.2998C167.6 33.8998 168.3 34.1998 169.2 34.1998C170.1 34.1998 170.8 33.9998 171.5 33.3998C172.1 32.7998 172.4 32.0998 172.4 31.1998V21.1998C172.4 18.7998 171.9 16.6998 171 14.9998C170.1 13.2998 168.8 11.8998 167.1 10.9998L167.2 11.1998Z" fill="white"/>
<path d="M194.6 11.3998C192.8 10.3998 190.7 9.7998 188.4 9.7998C186.1 9.7998 183.9 10.3998 182.1 11.3998C180.2 12.3998 178.7 13.8998 177.6 15.8998C176.6 17.6998 176 19.8998 176 22.1998C176 24.4998 176.5 26.6998 177.5 28.4998C178.5 30.2998 179.9 31.8998 181.6 32.9998C183.3 33.9998 185.3 34.5998 187.4 34.5998C189.5 34.5998 190.8 34.2998 192.3 33.4998C193 33.1998 193.7 32.6998 194.4 32.1998C194.5 32.7998 194.9 33.1998 195.2 33.5998C196.3 34.6998 198.5 34.6998 199.7 33.5998C200.3 32.9998 200.6 32.2998 200.6 31.3998V22.2998C200.6 19.9998 200 17.7998 199 15.9998C197.9 14.1998 196.4 12.5998 194.5 11.4998L194.6 11.3998ZM194.5 22.2998C194.5 23.5998 194.3 24.6998 193.7 25.6998C193.2 26.5998 192.4 27.3998 191.5 27.9998C190.5 28.5998 189.4 28.7998 188.3 28.7998C187.2 28.7998 186 28.5998 185.1 27.9998C184.1 27.3998 183.4 26.5998 182.8 25.5998C182.2 24.5998 182 23.3998 182 22.1998C182 20.9998 182.2 19.7998 182.8 18.7998C183.4 17.7998 184.2 16.9998 185.1 16.3998C186.1 15.7998 187.2 15.5998 188.3 15.5998C189.4 15.5998 190.6 15.8998 191.5 16.4998C192.4 17.0998 193.1 17.8998 193.7 18.8998C194.3 19.8998 194.5 21.0998 194.5 22.2998Z" fill="white"/>
<path d="M222.4 1.7998C220.7 0.799805 218.6 0.299805 216.5 0.299805H208.3C207.4 0.299805 206.6 0.599805 206 1.1998C205.4 1.7998 205.1 2.5998 205.1 3.4998V31.0998C205.1 31.9998 205.4 32.7998 206 33.3998C206.7 33.9998 207.4 34.2998 208.3 34.2998C209.2 34.2998 210 33.9998 210.6 33.2998C211.2 32.5998 211.5 31.7998 211.5 30.9998V23.0998H216.5C218.7 23.0998 220.7 22.4998 222.4 21.5998C224.1 20.6998 225.5 19.2998 226.5 17.5998C227.5 15.8998 228 13.8998 228 11.7998C228 9.6998 227.4 7.5998 226.5 5.8998C225.5 4.1998 224.1 2.7998 222.4 1.7998ZM221.9 12.0998C221.9 13.5998 221.4 14.7998 220.4 15.8998C219.4 16.8998 218.1 17.3998 216.5 17.3998H211.6V6.3998H216.6C218.1 6.3998 219.3 6.9998 220.4 7.9998C221.4 9.0998 221.9 10.3998 221.9 12.0998Z" fill="white"/>
<path d="M246.8 11.3998C245 10.3998 242.9 9.7998 240.6 9.7998C238.3 9.7998 236.1 10.3998 234.3 11.3998C232.4 12.3998 230.9 13.9998 229.8 15.8998C228.8 17.6998 228.2 19.8998 228.2 22.1998C228.2 24.4998 228.7 26.6998 229.7 28.4998C230.7 30.2998 232.1 31.8998 233.8 32.9998C235.5 33.9998 237.5 34.5998 239.6 34.5998C241.7 34.5998 243 34.2998 244.5 33.4998C245.2 33.1998 245.9 32.6998 246.6 32.1998C246.7 32.7998 247.1 33.1998 247.4 33.5998C248.5 34.6998 250.7 34.6998 251.9 33.5998C252.5 32.9998 252.8 32.2998 252.8 31.3998V22.2998C252.8 19.9998 252.2 17.7998 251.2 15.9998C250.1 14.1998 248.6 12.5998 246.7 11.4998L246.8 11.3998ZM246.6 22.2998C246.6 23.5998 246.4 24.6998 245.8 25.6998C245.3 26.5998 244.5 27.3998 243.6 27.9998C242.6 28.5998 241.5 28.7998 240.4 28.7998C239.3 28.7998 238.1 28.5998 237.2 27.9998C236.2 27.3998 235.5 26.5998 234.9 25.5998C234.3 24.5998 234.1 23.3998 234.1 22.1998C234.1 20.9998 234.3 19.7998 234.9 18.7998C235.5 17.7998 236.3 16.9998 237.2 16.3998C238.2 15.7998 239.3 15.5998 240.4 15.5998C241.5 15.5998 242.7 15.8998 243.6 16.4998C244.5 17.0998 245.2 17.8998 245.8 18.8998C246.4 19.8998 246.6 21.0998 246.6 22.2998Z" fill="white"/>
<path d="M266.4 29.1001C265.9 28.5001 265.1 28.2001 264.3 28.2001H263.3C263.2 28.2001 263 28.2001 262.7 27.7001C262.4 27.2001 262.2 26.6001 262.2 25.8001V3.5001C262.2 2.7001 261.9 1.9001 261.3 1.3001C260.2 0.200098 258 0.200098 256.8 1.3001C256.2 1.9001 255.9 2.6001 255.9 3.5001V25.8001C255.9 27.4001 256.2 28.9001 256.8 30.1001C257.4 31.4001 258.2 32.4001 259.3 33.2001C260.4 34.0001 261.7 34.3001 263.2 34.3001C264.7 34.3001 265.1 34.1001 265.9 33.5001C266.6 32.9001 267 32.1001 267 31.2001C267 30.3001 266.7 29.6001 266.2 29.0001L266.4 29.1001Z" fill="white"/>
<path d="M71.0999 33.7998C69.3999 33.7998 68 35.1998 68 36.8998C68 47.5998 59.2 56.3998 48.5 56.3998C37.8 56.3998 41.8999 55.4998 39.0999 53.9998C39.0999 53.6998 39.0999 53.2998 39.0999 52.9998C39.0999 49.1998 36 46.2998 32.4 46.2998C28.8 46.2998 25.7 49.3998 25.7 52.9998C25.7 56.5998 28.8 59.6998 32.4 59.6998C36 59.6998 34.4 59.4998 35.2 59.0998C39.1 61.4998 43.7 62.6998 48.4 62.6998C62.6 62.6998 74.0999 51.1998 74.1999 36.8998C74.1999 35.1998 72.7999 33.7998 71.0999 33.7998Z" fill="white"/>
<path d="M28.8 22.6002V16.7002C28.8 16.7002 28.8 16.7002 28.8 16.6002H28.9C28.9 12.0002 32.6 8.4002 37.1 8.4002C41.6 8.4002 45.3 12.1002 45.3 16.6002C45.3 16.6002 45.3 16.6002 45.3 16.7002V22.5002C45.3 30.4002 51.7 36.9002 59.7 36.9002C67.7 36.9002 73.9 30.5002 74.1 22.7002C74.1 22.7002 74.1 22.7002 74.1 22.6002V16.7002C74.1 15.0002 72.7 13.6002 71 13.6002C69.3 13.6002 67.9 15.0002 67.9 16.7002V22.5002C67.9 27.1002 64.2 30.7002 59.7 30.7002C55.2 30.7002 51.5 27.0002 51.5 22.5002V16.7002C51.5 16.7002 51.5 16.7002 51.5 16.6002C51.5 8.7002 45 2.2002 37.1 2.2002C29.2 2.2002 28.4 4.4002 25.8 7.7002C23.1 4.3002 19 2.2002 14.4 2.2002C6.5 2.2002 0 8.6002 0 16.5002C0 16.5002 0 16.6002 0 16.7002V22.6002C0 24.3002 1.4 25.7002 3.1 25.7002C4.8 25.7002 6.2 24.2002 6.2 22.6002V16.7002C6.2 16.7002 6.2 16.7002 6.2 16.6002H6.3C6.3 12.0002 10 8.4002 14.5 8.4002C19 8.4002 22.4 11.7002 22.7 16.0002C22.7 16.2002 22.7 16.5002 22.7 16.7002V22.6002C22.7 24.3002 24.1 25.7002 25.8 25.7002C27.5 25.7002 29 24.2002 28.9 22.6002H28.8Z" fill="white"/>
<path d="M86.7 43.9004C87.2 44.2004 87.6 44.6004 87.9 45.1004C88.2 45.6004 88.3 46.2004 88.3 46.8004C88.3 47.4004 88.2 48.0004 87.9 48.5004C87.6 49.0004 87.2 49.4004 86.7 49.6004C86.2 49.9004 85.6 50.0004 84.9 50.0004H83.4V53.2004C83.4 53.2004 83.4 53.3004 83.4 53.4004C83.4 53.5004 83.4 53.4004 83.2 53.4004H80.9C80.9 53.4004 80.8 53.4004 80.7 53.4004C80.7 53.4004 80.7 53.4004 80.7 53.2004V43.6004C80.7 43.6004 80.7 43.5004 80.7 43.4004C80.7 43.3004 80.7 43.4004 80.9 43.4004H85.1C85.8 43.4004 86.4 43.5004 86.9 43.8004L86.7 43.9004ZM85.3 47.5004C85.5 47.3004 85.6 47.1004 85.6 46.8004C85.6 46.5004 85.5 46.2004 85.3 46.0004C85.1 45.8004 84.8 45.7004 84.5 45.7004H83.3V47.6004H84.5C84.9 47.6004 85.1 47.6004 85.3 47.3004V47.5004Z" fill="white"/>
<path d="M94 46.1003C94 46.1003 94.1 46.2003 94 46.4003L93.7 48.6003V48.7003C93.7 48.7003 93.6 48.7003 93.5 48.7003C93.3 48.7003 93.2 48.7003 93 48.7003C92.8 48.7003 92.7 48.7003 92.6 48.7003C92.4 48.7003 92.1 48.8003 92 49.0003C91.8 49.2003 91.7 49.4003 91.7 49.6003V53.2003C91.7 53.2003 91.7 53.3003 91.7 53.4003C91.7 53.5003 91.7 53.4003 91.5 53.4003H89.2C89.2 53.4003 89.1 53.4003 89 53.4003C89 53.4003 89 53.4003 89 53.2003V46.2003C89 46.2003 89 46.1003 89 46.0003C89 46.0003 89 46.0003 89.2 46.0003H91.5C91.5 46.0003 91.6 46.0003 91.7 46.0003C91.7 46.0003 91.7 46.0003 91.7 46.2003V46.5003C92.1 46.0003 92.5 45.8003 93.1 45.8003C93.7 45.8003 93.7 45.8003 93.9 46.0003L94 46.1003Z" fill="white"/>
<path d="M95.6999 52.8003C95.0999 52.3003 94.6999 51.7003 94.4999 50.8003C94.4999 50.5003 94.3999 50.1003 94.3999 49.7003C94.3999 49.3003 94.3999 48.8003 94.5999 48.4003C94.7999 47.6003 95.1999 47.0003 95.8999 46.5003C96.4999 46.0003 97.2999 45.8003 98.0999 45.8003C98.8999 45.8003 99.6999 46.0003 100.3 46.5003C100.9 47.0003 101.3 47.6003 101.5 48.3003C101.6 48.7003 101.7 49.1003 101.7 49.6003C101.7 50.1003 101.7 50.3003 101.6 50.7003C101.4 51.6003 101 52.2003 100.4 52.7003C99.7999 53.2003 98.9999 53.4003 98.0999 53.4003C97.1999 53.4003 96.3999 53.2003 95.7999 52.7003L95.6999 52.8003ZM98.5999 51.0003C98.7999 50.8003 98.8999 50.6003 98.8999 50.3003C98.8999 50.1003 98.8999 49.9003 98.8999 49.7003C98.8999 49.5003 98.8999 49.3003 98.8999 49.0003C98.7999 48.4003 98.4999 48.2003 97.9999 48.2003C97.4999 48.2003 97.1999 48.5003 97.0999 49.0003C97.0999 49.2003 97.0999 49.4003 97.0999 49.7003C97.0999 50.0003 97.0999 50.2003 97.0999 50.3003C97.1999 50.9003 97.4999 51.2003 97.9999 51.2003C98.4999 51.2003 98.3999 51.2003 98.5999 51.0003Z" fill="white"/>
<path d="M103.2 52.9004C102.6 52.5004 102.3 51.9004 102.3 51.2004C102.3 51.0004 102.3 51.0004 102.3 50.9004C102.3 50.8004 102.3 50.9004 102.5 50.9004H104.6C104.7 50.9004 104.8 50.9004 104.8 51.1004C104.8 51.3004 104.8 51.4004 105 51.5004C105.2 51.5004 105.4 51.6004 105.6 51.6004C105.8 51.6004 106 51.6004 106.1 51.6004C106.2 51.6004 106.3 51.5004 106.3 51.3004C106.3 51.1004 106.3 51.1004 106.1 51.0004C105.9 51.0004 105.7 50.9004 105.3 50.8004C104.9 50.8004 104.6 50.7004 104.3 50.6004C104 50.6004 103.7 50.4004 103.5 50.3004C102.7 49.9004 102.3 49.3004 102.3 48.4004C102.3 47.5004 102.6 47.0004 103.2 46.6004C103.8 46.1004 104.6 45.9004 105.6 45.9004C106.6 45.9004 106.8 46.0004 107.3 46.2004C107.8 46.4004 108.2 46.7004 108.5 47.1004C108.8 47.5004 108.9 47.9004 108.9 48.5004C108.9 49.1004 108.9 48.7004 108.7 48.7004H106.6C106.5 48.7004 106.4 48.7004 106.4 48.5004C106.4 48.3004 106.4 48.2004 106.2 48.1004C106 48.0004 105.9 48.0004 105.6 48.0004C105.3 48.0004 105.2 48.0004 105.1 48.1004C105 48.1004 104.9 48.3004 104.9 48.4004C104.9 48.5004 104.9 48.7004 105.2 48.7004C105.4 48.7004 105.7 48.8004 106.1 48.9004C106.1 48.9004 106.3 48.9004 106.6 48.9004C106.9 48.9004 107.2 49.0004 107.5 49.1004C108 49.3004 108.4 49.5004 108.7 49.8004C109 50.1004 109.1 50.5004 109.1 51.0004C109.1 51.8004 108.8 52.4004 108.2 52.8004C107.6 53.2004 106.8 53.4004 105.7 53.4004C104.6 53.4004 103.8 53.2004 103.2 52.8004V52.9004Z" fill="white"/>
<path d="M114.6 48.1004C114.6 48.1004 114.6 48.1004 114.4 48.1004H113.2V50.3004C113.2 50.8004 113.4 51.0004 113.7 51.0004H114.2C114.2 51.0004 114.3 51.0004 114.4 51.0004C114.4 51.0004 114.4 51.0004 114.4 51.2004V53.0004C114.4 53.1004 114.4 53.2004 114.2 53.2004C113.8 53.2004 113.5 53.2004 113.1 53.2004C112.2 53.2004 111.6 53.1004 111.2 52.8004C110.8 52.5004 110.6 52.0004 110.6 51.3004V47.9004H109.8C109.8 47.9004 109.7 47.9004 109.6 47.9004C109.6 47.9004 109.6 47.9004 109.6 47.7004V46.0004C109.6 46.0004 109.6 45.9004 109.6 45.8004C109.6 45.8004 109.6 45.8004 109.8 45.8004H110.6V44.1004C110.6 44.1004 110.6 44.0004 110.6 43.9004C110.6 43.8004 110.6 43.9004 110.8 43.9004H112.9C112.9 43.9004 113 43.9004 113.1 43.9004C113.1 43.9004 113.1 43.9004 113.1 44.1004V45.8004H114.3C114.3 45.8004 114.4 45.8004 114.5 45.8004C114.5 45.8004 114.5 45.8004 114.5 46.0004V47.7004C114.5 47.7004 114.5 47.8004 114.5 47.9004L114.6 48.1004Z" fill="white"/>
<path d="M116.6 52.8003C116 52.3003 115.6 51.7003 115.4 50.8003C115.4 50.5003 115.3 50.1003 115.3 49.7003C115.3 49.3003 115.3 48.8003 115.5 48.4003C115.7 47.6003 116.1 47.0003 116.8 46.5003C117.4 46.0003 118.2 45.8003 119 45.8003C119.8 45.8003 120.6 46.0003 121.2 46.5003C121.8 47.0003 122.2 47.6003 122.4 48.3003C122.5 48.7003 122.6 49.1003 122.6 49.6003C122.6 50.1003 122.6 50.3003 122.5 50.7003C122.3 51.6003 121.9 52.2003 121.3 52.7003C120.7 53.2003 119.9 53.4003 119 53.4003C118.1 53.4003 117.3 53.2003 116.7 52.7003L116.6 52.8003ZM119.4 51.0003C119.6 50.8003 119.7 50.6003 119.7 50.3003C119.7 50.1003 119.7 49.9003 119.7 49.7003C119.7 49.5003 119.7 49.3003 119.7 49.0003C119.6 48.4003 119.3 48.2003 118.8 48.2003C118.3 48.2003 118 48.5003 117.9 49.0003C117.9 49.2003 117.9 49.4003 117.9 49.7003C117.9 50.0003 117.9 50.2003 117.9 50.3003C118 50.9003 118.3 51.2003 118.8 51.2003C119.3 51.2003 119.2 51.2003 119.4 51.0003Z" fill="white"/>
<path d="M126 53.4C126 53.4 126 53.4 126 53.2V51.1C126 51 126 50.9 126.1 50.8L128.7 48.4H126.3C126.3 48.4 126.2 48.4 126.1 48.4C126.1 48.4 126.1 48.4 126.1 48.2V46.2C126.1 46.2 126.1 46.1 126.1 46C126.1 46 126.1 46 126.3 46H131.8C131.8 46 131.9 46 132 46C132 46 132 46 132 46.2V48.3C132 48.4 132 48.5 131.9 48.6L129.1 51H131.9C131.9 51 132 51 132.1 51C132.1 51 132.1 51 132.1 51.2V53.2C132.1 53.2 132.1 53.3 132.1 53.4C132.1 53.4 132.1 53.4 131.9 53.4H126.2C126.2 53.4 126.1 53.4 126 53.4Z" fill="white"/>
<path d="M137.5 53.1003C136.9 52.8003 136.4 52.4003 136.1 51.8003C135.8 51.2003 135.6 50.6003 135.6 49.9003V47.0003C135.6 46.3003 135.8 45.6003 136.1 45.1003C136.4 44.5003 136.9 44.1003 137.5 43.8003C138.1 43.5003 138.8 43.3003 139.6 43.3003C140.4 43.3003 141.1 43.4003 141.7 43.7003C142.3 44.0003 142.8 44.4003 143.1 44.9003C143.4 45.4003 143.6 46.0003 143.6 46.7003C143.6 47.4003 143.6 46.8003 143.4 46.9003H141.1C141.1 47.0003 141.1 47.0003 141.1 47.0003C141 47.0003 140.9 47.0003 140.9 46.8003C140.9 46.4003 140.8 46.1003 140.6 45.9003C140.4 45.7003 140.1 45.6003 139.7 45.6003C139.3 45.6003 139 45.7003 138.8 45.9003C138.6 46.1003 138.5 46.4003 138.5 46.8003V49.9003C138.5 50.3003 138.6 50.6003 138.8 50.8003C139 51.0003 139.3 51.1003 139.7 51.1003C140.1 51.1003 140.4 51.0003 140.6 50.8003C140.8 50.6003 140.9 50.3003 140.9 49.9003C140.9 49.5003 140.9 49.9003 140.9 49.8003C140.9 49.8003 140.9 49.8003 141.1 49.8003H143.4C143.5 49.9003 143.6 50.0003 143.6 50.1003C143.6 50.8003 143.4 51.4003 143.1 51.9003C142.8 52.4003 142.3 52.8003 141.7 53.1003C141.1 53.4003 140.4 53.5003 139.6 53.5003C138.8 53.5003 138.1 53.3003 137.5 53.0003V53.1003Z" fill="white"/>
<path d="M150.1 46.2004C150.5 46.4004 150.8 46.7004 151 47.1004C151.2 47.5004 151.3 48.0004 151.3 48.5004V53.2004C151.3 53.2004 151.3 53.3004 151.3 53.4004C151.3 53.4004 151.3 53.4004 151.1 53.4004H148.8C148.8 53.4004 148.7 53.4004 148.6 53.4004C148.6 53.4004 148.6 53.4004 148.6 53.2004V49.1004C148.6 48.8004 148.6 48.6004 148.4 48.4004C148.2 48.2004 148.1 48.1004 147.8 48.1004C147.5 48.1004 147.4 48.1004 147.2 48.4004C147 48.7004 147 48.8004 147 49.1004V53.2004C147 53.2004 147 53.3004 147 53.4004C147 53.5004 147 53.4004 146.8 53.4004H144.5C144.5 53.4004 144.4 53.4004 144.3 53.4004C144.3 53.4004 144.3 53.4004 144.3 53.2004V43.6004C144.3 43.6004 144.3 43.5004 144.3 43.4004C144.3 43.3004 144.3 43.4004 144.5 43.4004H146.8C146.8 43.4004 146.9 43.4004 147 43.4004C147 43.4004 147 43.4004 147 43.6004V46.7004C147.4 46.1004 147.9 45.8004 148.7 45.8004C149.5 45.8004 149.6 45.9004 150 46.1004L150.1 46.2004Z" fill="white"/>
<path d="M152.3 53.4002C152.3 53.4002 152.3 53.4002 152.3 53.2002V46.2002C152.3 46.2002 152.3 46.1002 152.3 46.0002C152.3 46.0002 152.3 46.0002 152.5 46.0002H154.8C154.8 46.0002 154.9 46.0002 155 46.0002C155 46.0002 155 46.0002 155 46.2002V53.2002C155 53.2002 155 53.3002 155 53.4002C155 53.5002 155 53.4002 154.8 53.4002H152.5C152.5 53.4002 152.4 53.4002 152.3 53.4002ZM152.7 45.1002C152.4 44.8002 152.3 44.5002 152.3 44.1002C152.3 43.7002 152.4 43.4002 152.7 43.1002C153 42.9002 153.3 42.7002 153.7 42.7002C154.1 42.7002 154.4 42.8002 154.7 43.1002C155 43.3002 155.1 43.7002 155.1 44.1002C155.1 44.5002 155 44.8002 154.7 45.1002C154.4 45.4002 154.1 45.5002 153.7 45.5002C153.3 45.5002 153 45.4002 152.7 45.1002Z" fill="white"/>
<path d="M161.7 46.2003C162.1 46.4003 162.4 46.7003 162.6 47.1003C162.8 47.5003 162.9 48.0003 162.9 48.5003V53.2003C162.9 53.2003 162.9 53.3003 162.9 53.4003C162.9 53.4003 162.9 53.4003 162.7 53.4003H160.4C160.4 53.4003 160.3 53.4003 160.2 53.4003C160.2 53.4003 160.2 53.4003 160.2 53.2003V49.1003C160.2 48.8003 160.2 48.6003 160 48.4003C159.8 48.2003 159.7 48.1003 159.4 48.1003C159.1 48.1003 159 48.1003 158.8 48.4003C158.6 48.7003 158.6 48.8003 158.6 49.1003V53.2003C158.6 53.2003 158.6 53.3003 158.6 53.4003C158.6 53.5003 158.6 53.4003 158.4 53.4003H156.1C156.1 53.4003 156 53.4003 155.9 53.4003C155.9 53.4003 155.9 53.4003 155.9 53.2003V46.2003C155.9 46.2003 155.9 46.1003 155.9 46.0003C155.9 46.0003 155.9 46.0003 156.1 46.0003H158.4C158.4 46.0003 158.5 46.0003 158.6 46.0003C158.6 46.0003 158.6 46.0003 158.6 46.2003V46.7003C159 46.1003 159.5 45.8003 160.3 45.8003C161.1 45.8003 161.2 45.9003 161.6 46.1003L161.7 46.2003Z" fill="white"/>
<path d="M163.7 54.8002L164.1 51.4002C164.1 51.3002 164.1 51.2002 164.3 51.2002H166.3C166.3 51.2002 166.4 51.2002 166.5 51.2002C166.5 51.2002 166.5 51.3002 166.5 51.4002L165.6 54.8002C165.6 54.9002 165.5 55.0002 165.4 55.0002H164C163.8 55.0002 163.8 55.0002 163.8 54.8002H163.7Z" fill="white"/>
<path d="M175.1 43.5C175.1 43.5 175.1 43.5 175.3 43.5H177.6C177.6 43.5 177.7 43.5 177.8 43.5C177.8 43.5 177.8 43.5 177.8 43.7V53.3C177.8 53.3 177.8 53.4 177.8 53.5C177.8 53.6 177.8 53.5 177.6 53.5H175.3C175.3 53.5 175.2 53.5 175.1 53.5C175.1 53.5 175.1 53.5 175.1 53.3V52.9C174.7 53.4 174.2 53.7 173.4 53.7C172.6 53.7 172.2 53.5 171.7 53.1C171.2 52.7 170.8 52.1 170.6 51.5C170.5 51 170.4 50.5 170.4 49.9C170.4 49.3 170.5 48.6 170.7 48.1C170.9 47.5 171.3 47 171.8 46.7C172.3 46.3 172.9 46.2 173.5 46.2C174.1 46.2 174.7 46.4 175 46.9V44C175 44 175 43.9 175 43.8L175.1 43.5ZM175 49.8C175 49.3 175 49 174.8 48.7C174.6 48.4 174.4 48.3 174.1 48.3C173.8 48.3 173.5 48.5 173.3 48.8C173.2 49.1 173.1 49.4 173.1 49.9C173.1 50.4 173.1 50.7 173.3 50.9C173.5 51.2 173.7 51.4 174.1 51.4C174.5 51.4 174.7 51.2 174.9 50.9C175 50.6 175.1 50.3 175.1 49.9L175 49.8Z" fill="white"/>
<path d="M179.9 52.8003C179.3 52.3003 178.9 51.7003 178.7 50.8003C178.7 50.5003 178.6 50.1003 178.6 49.7003C178.6 49.3003 178.6 48.8003 178.8 48.4003C179 47.6003 179.4 47.0003 180.1 46.5003C180.7 46.0003 181.5 45.8003 182.3 45.8003C183.1 45.8003 183.9 46.0003 184.5 46.5003C185.1 47.0003 185.5 47.6003 185.7 48.3003C185.8 48.7003 185.9 49.1003 185.9 49.6003C185.9 50.1003 185.9 50.3003 185.8 50.7003C185.6 51.6003 185.2 52.2003 184.6 52.7003C184 53.2003 183.2 53.4003 182.3 53.4003C181.4 53.4003 180.6 53.2003 180 52.7003L179.9 52.8003ZM182.8 51.0003C183 50.8003 183.1 50.6003 183.1 50.3003C183.1 50.1003 183.1 49.9003 183.1 49.7003C183.1 49.5003 183.1 49.3003 183.1 49.0003C183 48.4003 182.7 48.2003 182.2 48.2003C181.7 48.2003 181.4 48.5003 181.3 49.0003C181.3 49.2003 181.3 49.4003 181.3 49.7003C181.3 50.0003 181.3 50.2003 181.3 50.3003C181.4 50.9003 181.7 51.2003 182.2 51.2003C182.7 51.2003 182.6 51.2003 182.8 51.0003Z" fill="white"/>
<path d="M197.2 43.5C197.2 43.5 197.2 43.5 197.2 43.7V45.6C197.2 45.6 197.2 45.7 197.2 45.8C197.2 45.8 197.2 45.8 197 45.8H194.6V53.2C194.6 53.2 194.6 53.3 194.6 53.4C194.6 53.5 194.6 53.4 194.4 53.4H192.1C192.1 53.4 192 53.4 191.9 53.4C191.9 53.4 191.9 53.4 191.9 53.2V45.8H189.6C189.6 45.8 189.5 45.8 189.4 45.8C189.4 45.8 189.4 45.8 189.4 45.6V43.7C189.4 43.7 189.4 43.6 189.4 43.5C189.4 43.4 189.4 43.5 189.6 43.5H197.2C197.2 43.5 197.3 43.5 197.4 43.5H197.2Z" fill="white"/>
<path d="M198.9 53.4001C198.9 53.4001 198.9 53.4001 198.9 53.3001L196.8 46.3001C196.8 46.2001 196.8 46.1001 197 46.1001H199.3C199.4 46.1001 199.5 46.1001 199.5 46.3001L200.2 49.8001L201 46.3001C201 46.2001 201.1 46.1001 201.2 46.1001H203.2C203.3 46.1001 203.4 46.1001 203.4 46.3001L204.2 49.8001L205 46.3001C205 46.2001 205.1 46.1001 205.2 46.1001H207.5C207.5 46.1001 207.6 46.1001 207.7 46.1001C207.7 46.1001 207.7 46.2001 207.7 46.3001L205.6 53.3001V53.4001C205.6 53.4001 205.6 53.4001 205.4 53.4001H203.1C203 53.4001 202.9 53.4001 202.9 53.2001L202.1 50.4001L201.5 53.2001C201.5 53.3001 201.4 53.4001 201.3 53.4001H199C199 53.4001 198.9 53.4001 198.8 53.4001H198.9Z" fill="white"/>
<path d="M209.4 52.8003C208.8 52.3003 208.4 51.7003 208.2 50.8003C208.2 50.5003 208.1 50.1003 208.1 49.7003C208.1 49.3003 208.1 48.8003 208.3 48.4003C208.5 47.6003 208.9 47.0003 209.6 46.5003C210.2 46.0003 211 45.8003 211.8 45.8003C212.6 45.8003 213.4 46.0003 214 46.5003C214.6 47.0003 215 47.6003 215.2 48.3003C215.3 48.7003 215.4 49.1003 215.4 49.6003C215.4 50.1003 215.4 50.3003 215.3 50.7003C215.1 51.6003 214.7 52.2003 214.1 52.7003C213.5 53.2003 212.7 53.4003 211.8 53.4003C210.9 53.4003 210.1 53.2003 209.5 52.7003L209.4 52.8003ZM212.3 51.0003C212.5 50.8003 212.6 50.6003 212.6 50.3003C212.6 50.1003 212.6 49.9003 212.6 49.7003C212.6 49.5003 212.6 49.3003 212.6 49.0003C212.5 48.4003 212.2 48.2003 211.7 48.2003C211.2 48.2003 210.9 48.5003 210.8 49.0003C210.8 49.2003 210.8 49.4003 210.8 49.7003C210.8 50.0003 210.8 50.2003 210.8 50.3003C210.9 50.9003 211.2 51.2003 211.7 51.2003C212.2 51.2003 212.1 51.2003 212.3 51.0003Z" fill="white"/>
<path d="M214.6 56.1002V54.3002C214.6 54.2002 214.6 54.1002 214.8 54.1002C214.8 54.1002 215 54.1002 215.2 54.1002C215.6 54.1002 215.9 54.1002 216.1 53.9002C216.3 53.7002 216.3 53.5002 216.3 53.1002V46.3002C216.3 46.3002 216.3 46.2002 216.3 46.1002C216.3 46.0002 216.3 46.1002 216.5 46.1002H218.8C218.8 46.1002 218.9 46.1002 219 46.1002C219 46.1002 219 46.1002 219 46.3002V53.1002C219 54.0002 218.9 54.6002 218.7 55.1002C218.5 55.6002 218.1 55.9002 217.6 56.1002C217.1 56.3002 216.3 56.4002 215.4 56.4002H214.9C214.8 56.4002 214.7 56.4002 214.7 56.2002L214.6 56.1002ZM216.6 45.1002C216.3 44.8002 216.2 44.5002 216.2 44.1002C216.2 43.7002 216.3 43.4002 216.6 43.1002C216.9 42.9002 217.2 42.7002 217.6 42.7002C218 42.7002 218.3 42.8002 218.6 43.1002C218.9 43.3002 219 43.7002 219 44.1002C219 44.5002 218.9 44.8002 218.6 45.1002C218.3 45.4002 218 45.5002 217.6 45.5002C217.2 45.5002 216.9 45.4002 216.6 45.1002Z" fill="white"/>
<path d="M227 49.8003C227 50.0003 227 50.1003 227 50.2003C227 50.3003 227 50.4003 226.8 50.4003H222.5C222.5 50.4003 222.5 50.6003 222.6 50.7003C222.6 50.9003 222.9 51.0003 223.1 51.1003C223.3 51.2003 223.6 51.3003 223.9 51.3003C224.2 51.3003 224.4 51.3003 224.6 51.2003C224.8 51.2003 225 51.0003 225.2 50.9003C225.2 50.9003 225.2 50.9003 225.3 50.9003C225.4 50.9003 225.4 50.9003 225.5 50.9003L226.6 52.3003C226.6 52.3003 226.6 52.4003 226.6 52.5003C226.6 52.6003 226.6 52.6003 226.6 52.6003C226.3 52.9003 225.9 53.2003 225.4 53.3003C224.9 53.5003 224.4 53.5003 223.8 53.5003C222.9 53.5003 222.2 53.3003 221.5 52.9003C220.8 52.5003 220.4 52.0003 220.1 51.3003C219.9 50.8003 219.8 50.3003 219.8 49.7003C219.8 49.1003 219.8 48.6003 220.1 48.1003C220.4 47.4003 220.8 46.8003 221.4 46.4003C222 46.0003 222.7 45.8003 223.5 45.8003C224.3 45.8003 224.7 45.9003 225.2 46.2003C225.7 46.5003 226.1 46.9003 226.5 47.4003C226.8 47.9003 227.1 48.5003 227.1 49.1003C227.1 49.3003 227.1 49.5003 227.1 49.7003L227 49.8003ZM222.5 48.8003V49.0003H224.1C224.1 49.0003 224.1 48.9003 224.1 48.8003C224.1 48.6003 224 48.5003 223.8 48.4003C223.7 48.3003 223.5 48.3003 223.3 48.3003C222.9 48.3003 222.6 48.5003 222.5 48.9003V48.8003Z" fill="white"/>
<path d="M226.2 56.1002V54.3002C226.2 54.2002 226.2 54.1002 226.4 54.1002C226.4 54.1002 226.6 54.1002 226.8 54.1002C227.2 54.1002 227.5 54.1002 227.7 53.9002C227.9 53.7002 227.9 53.5002 227.9 53.1002V46.3002C227.9 46.3002 227.9 46.2002 227.9 46.1002C227.9 46.0002 227.9 46.1002 228.1 46.1002H230.4C230.4 46.1002 230.5 46.1002 230.6 46.1002C230.6 46.1002 230.6 46.1002 230.6 46.3002V53.1002C230.6 54.0002 230.5 54.6002 230.3 55.1002C230.1 55.6002 229.7 55.9002 229.2 56.1002C228.7 56.3002 227.9 56.4002 227 56.4002H226.5C226.4 56.4002 226.3 56.4002 226.3 56.2002L226.2 56.1002ZM228.2 45.1002C227.9 44.8002 227.8 44.5002 227.8 44.1002C227.8 43.7002 227.9 43.4002 228.2 43.1002C228.5 42.9002 228.8 42.7002 229.2 42.7002C229.6 42.7002 229.9 42.8002 230.2 43.1002C230.5 43.3002 230.6 43.7002 230.6 44.1002C230.6 44.5002 230.5 44.8002 230.2 45.1002C229.9 45.4002 229.6 45.5002 229.2 45.5002C228.8 45.5002 228.5 45.4002 228.2 45.1002Z" fill="white"/>
<path d="M239.3 46.1002C239.3 46.1002 239.3 46.1002 239.3 46.3002V48.0002C239.3 48.0002 239.3 48.1002 239.3 48.2002C239.3 48.2002 239.3 48.2002 239.1 48.2002H237.8V53.2002C237.8 53.2002 237.8 53.3002 237.8 53.4002C237.8 53.5002 237.8 53.4002 237.6 53.4002H235.3C235.3 53.4002 235.2 53.4002 235.1 53.4002C235 53.4002 235.1 53.4002 235.1 53.2002V48.2002H234.4C234.4 48.2002 234.3 48.2002 234.2 48.2002C234.2 48.2002 234.2 48.2002 234.2 48.0002V46.3002C234.2 46.3002 234.2 46.2002 234.2 46.1002C234.2 46.1002 234.2 46.1002 234.4 46.1002H235.1V45.7002C235.1 45.0002 235.3 44.4002 235.7 44.1002C236.1 43.8002 236.8 43.6002 237.7 43.6002C238.6 43.6002 238.1 43.6002 238.2 43.6002H238.8C238.8 43.6002 238.9 43.6002 239 43.6002C239 43.6002 239 43.6002 239 43.8002V45.2002C239 45.2002 239 45.3002 239 45.4002C239 45.5002 239 45.4002 238.8 45.4002H238.2C238 45.4002 237.9 45.4002 237.8 45.5002C237.8 45.5002 237.7 45.7002 237.7 45.9002V46.1002H239C239 46.1002 239.1 46.1002 239.2 46.1002H239.3ZM240.2 53.4002C240.2 53.4002 240.2 53.4002 240.2 53.2002V46.2002C240.2 46.2002 240.2 46.1002 240.2 46.0002C240.2 46.0002 240.2 46.0002 240.4 46.0002H242.7C242.7 46.0002 242.8 46.0002 242.9 46.0002C242.9 46.0002 242.9 46.0002 242.9 46.2002V53.2002C242.9 53.2002 242.9 53.3002 242.9 53.4002C242.9 53.4002 242.9 53.4002 242.7 53.4002H240.4C240.4 53.4002 240.3 53.4002 240.2 53.4002ZM240.5 45.1002C240.2 44.8002 240.1 44.5002 240.1 44.1002C240.1 43.7002 240.2 43.4002 240.5 43.1002C240.8 42.9002 241.1 42.7002 241.5 42.7002C241.9 42.7002 242.2 42.8002 242.5 43.1002C242.8 43.3002 242.9 43.7002 242.9 44.1002C242.9 44.5002 242.8 44.8002 242.5 45.1002C242.2 45.4002 241.9 45.5002 241.5 45.5002C241.1 45.5002 240.8 45.4002 240.5 45.1002Z" fill="white"/>
<path d="M248.7 46.1003C248.7 46.1003 248.8 46.2003 248.8 46.4003L248.5 48.6003V48.7003C248.5 48.7003 248.4 48.7003 248.3 48.7003C248.1 48.7003 248 48.7003 247.8 48.7003C247.6 48.7003 247.5 48.7003 247.4 48.7003C247.2 48.7003 246.9 48.8003 246.8 49.0003C246.6 49.2003 246.5 49.4003 246.5 49.6003V53.2003C246.5 53.2003 246.5 53.3003 246.5 53.4003C246.5 53.5003 246.5 53.4003 246.3 53.4003H244C244 53.4003 243.9 53.4003 243.8 53.4003C243.8 53.4003 243.8 53.4003 243.8 53.2003V46.2003C243.8 46.2003 243.8 46.1003 243.8 46.0003C243.8 46.0003 243.8 46.0003 244 46.0003H246.3C246.3 46.0003 246.4 46.0003 246.5 46.0003C246.5 46.0003 246.5 46.0003 246.5 46.2003V46.5003C246.9 46.0003 247.3 45.8003 247.9 45.8003C248.5 45.8003 248.5 45.8003 248.7 46.0003V46.1003Z" fill="white"/>
<path d="M259.9 46.6002C260.3 47.1002 260.5 47.7002 260.5 48.6002V53.3002C260.5 53.3002 260.5 53.4002 260.5 53.5002C260.5 53.6002 260.5 53.5002 260.3 53.5002H258C258 53.5002 257.9 53.5002 257.8 53.5002C257.8 53.5002 257.8 53.5002 257.8 53.3002V49.2002C257.8 48.9002 257.8 48.7002 257.6 48.5002C257.5 48.3002 257.3 48.2002 257.1 48.2002C256.9 48.2002 256.7 48.2002 256.5 48.5002C256.4 48.7002 256.3 48.9002 256.3 49.2002V53.3002C256.3 53.3002 256.3 53.4002 256.3 53.5002C256.3 53.5002 256.3 53.5002 256.1 53.5002H253.8C253.8 53.5002 253.7 53.5002 253.6 53.5002C253.6 53.5002 253.6 53.5002 253.6 53.3002V49.2002C253.6 48.9002 253.6 48.7002 253.4 48.5002C253.3 48.3002 253.1 48.2002 252.8 48.2002C252.5 48.2002 252.4 48.2002 252.3 48.4002C252.2 48.6002 252.1 48.7002 252 48.9002V53.1002C252 53.1002 252 53.2002 252 53.3002C252 53.4002 252 53.3002 251.8 53.3002H249.5C249.5 53.3002 249.4 53.3002 249.3 53.3002C249.3 53.3002 249.3 53.3002 249.3 53.1002V46.1002C249.3 46.1002 249.3 46.0002 249.3 45.9002C249.3 45.9002 249.3 45.9002 249.5 45.9002H251.8C251.8 45.9002 251.9 45.9002 252 45.9002C252 45.9002 252 45.9002 252 46.1002V46.8002C252.4 46.1002 253 45.7002 253.8 45.7002C254.6 45.7002 254.7 45.8002 255.1 46.0002C255.5 46.2002 255.7 46.5002 255.9 47.0002C256.1 46.6002 256.4 46.3002 256.7 46.0002C257 45.8002 257.4 45.7002 257.9 45.7002C258.7 45.7002 259.2 45.9002 259.7 46.4002L259.9 46.6002Z" fill="white"/>
<path d="M261.1 56.2C261.1 56.2 261.1 56.2 261.1 56V54.2C261.1 54.1 261.1 54 261.3 54C261.9 54 262.4 54 262.6 53.9C262.9 53.9 263 53.7 263 53.4L260.7 46.2C260.7 46.1 260.7 46 260.9 46H263.3C263.4 46 263.5 46 263.5 46.2L264.3 50L265.1 46.2C265.1 46.1 265.2 46 265.3 46H267.6C267.8 46 267.8 46 267.8 46.2L265.5 53.4C265.3 54.1 265 54.7 264.7 55.1C264.4 55.5 264 55.8 263.5 56C263 56.2 262.2 56.3 261.2 56.3H261.1V56.2Z" fill="white"/>
</g>
<defs>
<clipPath id="clip0_174_57">
<rect width="268" height="62.7" fill="white"/>
</clipPath>
</defs>
</svg>
